<svg xmlns="http://www.w3.org/2000/svg" width="1200" height="630" viewBox="0 0 1200 630">
  <defs>
    <linearGradient id="bg" x1="0%" y1="0%" x2="100%" y2="100%">
      <stop offset="0%" style="stop-color:#0a1628"/>
      <stop offset="50%" style="stop-color:#1a2744"/>
      <stop offset="100%" style="stop-color:#3d5a80"/>
    </linearGradient>
  </defs>
  <!-- Background -->
  <rect width="1200" height="630" fill="url(#bg)"/>
  <!-- Mountain silhouette -->
  <polygon points="0,630 0,480 120,400 200,450 320,350 400,420 520,300 600,380 720,280 800,350 920,250 1000,320 1120,220 1200,300 1200,630" fill="rgba(10,22,40,0.8)"/>
  <polygon points="0,630 0,520 80,460 160,500 280,420 360,480 480,380 560,450 680,360 760,420 880,340 960,400 1080,320 1200,380 1200,630" fill="rgba(10,22,40,0.95)"/>
  <!-- Logo -->
  <text x="100" y="200" font-family="Georgia, serif" font-size="28" font-weight="600" fill="rgba(255,255,255,0.5)" letter-spacing="0.3em">ABACUS</text>
  <!-- Title -->
  <text x="100" y="320" font-family="Georgia, serif" font-size="72" font-weight="400" font-style="italic" fill="#ffffff">Disciplined Capital</text>
  <text x="100" y="400" font-family="Georgia, serif" font-size="72" font-weight="400" font-style="italic" fill="#ffffff">Allocation</text>
  <!-- Subtitle -->
  <text x="100" y="480" font-family="system-ui, sans-serif" font-size="24" fill="rgba(255,255,255,0.7)">Data-driven investment strategies built on quantitative rigor</text>
  <!-- URL -->
  <text x="100" y="570" font-family="system-ui, sans-serif" font-size="18" fill="rgba(255,255,255,0.4)">abacuswealthgroup.com</text>
</svg>
